<?xml version="1.0" encoding="utf-8"?>
<!-- Generator: Adobe Illustrator 27.2.0, SVG Export Plug-In . SVG Version: 6.00 Build 0)  -->
<svg version="1.1" id="图层_1" xmlns="http://www.w3.org/2000/svg" xmlns:xlink="http://www.w3.org/1999/xlink" x="0px" y="0px"
	 viewBox="0 0 180 180" style="enable-background:new 0 0 180 180;" xml:space="preserve">
<style type="text/css">
	.st0{fill:none;stroke:#FFFFFF;stroke-width:7;stroke-miterlimit:10;}
</style>
<g>
	<polygon class="st0" points="119.6,33.5 58.4,33.5 27.9,86.4 58.4,139.3 119.6,139.3 150.1,86.4 	"/>
	<polyline class="st0" points="118.4,33.5 87.9,86.4 118.4,139.3 	"/>
	<line class="st0" x1="27.9" y1="86.7" x2="87.9" y2="86.4"/>
	<g>
		<path class="st0" d="M43.9,87.1c5-8.8,17.8-31.4,22.9-40.5L95.7,47L80.8,73.2l-28.9-0.1L43.9,87.1z"/>
		<line class="st0" x1="60" y1="59.7" x2="89" y2="59.7"/>
	</g>
	<g>
		<path class="st0" d="M110.5,48.5c5.1,8.7,18.3,31.1,23.6,40.1l-14.8,24.8l-15.2-26l14.5-25L110.5,48.5z"/>
		<line class="st0" x1="126.2" y1="76.1" x2="111.7" y2="101.2"/>
	</g>
	<g>
		<path class="st0" d="M110.4,125.3c-9.5-0.2-35.5-0.1-45.4,0l-14-25.3l30.1,0l14.3,25.2L110.4,125.3z"/>
		<line class="st0" x1="79.7" y1="124.8" x2="65.3" y2="99.6"/>
	</g>
</g>
</svg>
